# AST/ASF file generated using VICON BodyLanguage
# -----------------------------------------------
:version 1.10
:name VICON
:units
  mass 1.0
  length 0.45
  angle deg
:documentation
   .ast/.asf automatically generated from VICON data using
   VICON BodyBuilder and BodyLanguage model FoxedUp or BRILLIANT.MOD
:root
   order TX TY TZ RX RY RZ
   axis XYZ
   position 0 0 0  
   orientation 0 0 0 
:bonedata
  begin
     id 1 
     name lhipjoint
     direction 0.584852 -0.759097 0.285867 
     length 2.43633 
     axis 0 0 0  XYZ
  end
  begin
     id 2 
     name lfemur
     direction 0.34202 -0.939693 0  
     length 7.14704  
     axis 0 0 20  XYZ
    dof rx ry rz
    limits (-160.0 20.0)
           (-70.0 70.0)
           (-60.0 70.0)
  end
  begin
     id 3 
     name ltibia
     direction 0.342022 -0.939692 0   
     length 7.68483   
     axis 0 0 20   XYZ
    dof rx
    limits (-10.0 170.0)
  end
  begin
     id 4 
     name lfoot
     direction 0.0999605 -0.274639 0.956337   
     length 2.40452   
     axis -90 7.62852e-016 20   XYZ
    dof rx rz
    limits (-45.0 90.0)
           (-70.0 20.0)
  end
  begin
     id 5 
     name ltoes
     direction 1.53468e-011 -4.21881e-011 1   
     length 1.19837   
     axis -90 7.62852e-016 20   XYZ
    dof rx
    limits (-90.0 20.0)
  end
  begin
     id 6 
     name rhipjoint
     direction -0.569886 -0.769002 0.289597   
     length 2.40495  
     axis 0 0 0  XYZ 
  end
  begin
     id 7 
     name rfemur
     direction -0.34202 -0.939693 0   
     length 7.45086   
     axis 0 0 -20   XYZ
    dof rx ry rz
    limits (-160.0 20.0)
           (-70.0 70.0)
           (-70.0 60.0)
  end
  begin
     id 8 
     name rtibia
     direction -0.34202 -0.939693 0   
     length 7.76831   
     axis 0 0 -20   XYZ
    dof rx
    limits (-10.0 170.0)
 end
 begin
     id 9 
     name rfoot
     direction -0.0798572 -0.219406 0.97236   
     length 2.35911  
     axis -90 -7.62852e-016 -20   XYZ
    dof rx rz
    limits (-45.0 90.0)
           (-20.0 70.0)
  end
  begin
     id 10 
     name rtoes
     direction -1.53469e-011 -4.21728e-011 1   
     length 1.18261   
     axis -90 -7.62852e-016 -20   XYZ
    dof rx
    limits (-90.0 20.0)
  end
  begin
     id 11 
     name lowerback
     direction 0.0242088 0.999437 0.0232389   
     length 2.1561   
     axis 0 0 0   XYZ
    dof rx ry rz
    limits (-20.0 45.0)
           (-30.0 30.0)
           (-30.0 30.0)
  end
  begin
     id 12 
     name upperback
     direction -0.0356893 0.999013 -0.0264323   
     length 2.14431   
     axis 0 0 0   XYZ
    dof rx ry rz
    limits (-20.0 45.0)
           (-30.0 30.0)
           (-30.0 30.0)
  end
  begin
     id 13 
     name thorax
     direction -0.0472163 0.998194 -0.0371284   
     length 2.16169   
     axis 0 0 0   XYZ
    dof rx ry rz
    limits (-20.0 45.0)
           (-30.0 30.0)
           (-30.0 30.0)
  end
  begin
     id 14 
     name lowerneck
     direction 0.00863244 0.999921 0.00911972   
     length 1.58651   
     axis 0 0 0   XYZ
    dof rx ry rz
    limits (-20.0 45.0)
           (-30.0 30.0)
           (-30.0 30.0)
  end
  begin
     id 15 
     name upperneck
     direction 0.149523 0.979068 -0.138086   
     length 1.57486   
     axis 0 0 0   XYZ
    dof rx ry rz
    limits (-20.0 45.0)
           (-30.0 30.0)
           (-30.0 30.0)
  end
  begin
     id 16
     name head
     direction 0.0445219 0.997708 -0.0509576  
     length 1.6019  
     axis 0 0 0   XYZ
    dof rx ry rz
    limits (-20.0 45.0)
           (-30.0 30.0)
           (-30.0 30.0)
  end
  begin
     id 17 
     name lclavicle
     direction 0.911271 0.381667 -0.154644  
     length 3.80848  
     axis 0 0 0   XYZ
    dof ry rz
    limits (-20.0 10.0)
           (0.0 20.0)
  end
  begin
     id 18 
     name lhumerus
     direction 1 -4.49003e-011 2.1308e-027   
     length 5.19069   
     axis 180 -30 -90   XYZ
    dof rx ry rz
    limits (-60.0 90.0)
           (-90.0 90.0)
           (-90.0 90.0)
  end
  begin
     id 19
     name lradius
     direction 1 -4.48914e-011 4.01554e-027   
     length 3.30016   
     axis 180 -30 -90   XYZ
    dof rx
    limits (-10.0 170.0)
  end
  begin
     id 20
     name lwrist
     direction 1 -4.49003e-011 1.1934e-026   
     length 1.65008   
     axis -8.46377e-015 90 90   XYZ
    dof ry
    limits (-180.0 0.0)
 end
  begin
     id 21 
     name lhand
     direction 1 -4.49034e-011 2.38659e-026   
     length 0.707698   
     axis -1.52313e-014 90 90   XYZ
    dof rx rz
    limits (-90.0 90.0)
           (-45.0 45.0)
  end
  begin
     id 22 
     name lfingers
     direction 1 -4.48691e-011 4.77775e-026   
     length 0.570564   
     axis -3.04623e-014 90 90   XYZ
    dof rx
    limits (0.0 90.0)
  end
  begin
     id 23
     name lthumb
     direction 0.707107 -6.34832e-011 0.707107   
     length 0.819219   
     axis -90 45 -1.62303e-014   XYZ
    dof rx rz
    limits (-45.0 45.0)
           (-45.0 45.0)
  end
  begin
     id 24 
     name rclavicle
     direction -0.815579 0.573708 -0.0754329   
     length 3.54371  
     axis 0 0 0   XYZ 
    dof ry rz
    limits (-10.0 20.0)
           (-20.0 0.0)
  end
  begin
     id 25 
     name rhumerus
     direction -1 -4.48956e-011 3.05351e-028  
     length 5.23924   
     axis 180 30 90   XYZ
    dof rx ry rz
    limits (-90.0 60.0)
           (-90.0 90.0)
           (-90.0 90.0)
  end
  begin
     id 26 
     name rradius
     direction -1 -4.49013e-011 3.53849e-027   
     length 3.32953   
     axis 180 30 90   XYZ
    dof rx
    limits (-10.0 170.0)
  end
  begin
     id 27 
     name rwrist
     direction -1 -4.48901e-011 1.19374e-026   
     length 1.66477   
     axis -8.46377e-015 -90 -90   XYZ
    dof ry
    limits (-180.0 0.0)
  end
  begin
     id 28
     name rhand
     direction -1 -4.48877e-011 2.38764e-026   
     length 0.607414   
     axis -1.52313e-014 -90 -90   XYZ
    dof rx rz
    limits (-90.0 90.0)
           (-45.0 45.0)
  end
  begin
     id 29
     name rfingers
     direction -1 -4.48882e-011 4.77521e-026   
     length 0.489712   
     axis -3.04623e-014 -90 -90   XYZ
    dof rx
    limits (0.0 90.0)
  end
  begin
     id 30
     name rthumb
     direction -0.707107 -6.34974e-011 0.707107   
     length 0.703132   
     axis -90 -45 1.62303e-014   XYZ
    dof rx rz
    limits (-45.0 45.0)
           (-45.0 45.0)
  end
:hierarchy
  begin
    root lhipjoint rhipjoint lowerback
    lhipjoint lfemur
    lfemur ltibia
    ltibia lfoot
    lfoot ltoes
    rhipjoint rfemur
    rfemur rtibia
    rtibia rfoot
    rfoot rtoes
    lowerback upperback
    upperback thorax
    thorax lowerneck lclavicle rclavicle
    lowerneck upperneck
    upperneck head
    lclavicle lhumerus
    lhumerus lradius
    lradius lwrist
    lwrist lhand lthumb
    lhand lfingers
    rclavicle rhumerus
    rhumerus rradius
    rradius rwrist
    rwrist rhand rthumb
    rhand rfingers
  end

#!OML:ASF E:\VariousWalksJay\Project 1\Capture day 1\Session 1\Actor2.ASF
:FULLY-SPECIFIED
:DEGREES
401
root 20.1092 13.3907 -15.4211 2.6413 -42.7155 0.582422
lowerback 46.5111 -4.16573 3.80827
upperback 19.3985 -5.07821 -3.75203
thorax 0.0526768 -2.48943 -4.03155
lowerneck 2.13045 2.78555 2.45896
upperneck -26.8519 3.73761 -0.886296
head -8.62805 1.45198 -0.99064
rclavicle -7.95139e-014 8.98507e-014
rhumerus 10.1737 35.1779 -65.5513
rradius 104
rwrist -5.97129
rhand -35.6932 -17.5994
rfingers 7.12502
rthumb -8.81378 -47.3953
lclavicle -7.95139e-014 8.98507e-014
lhumerus 66.4162 4.30259 31.3925
lradius 64.4988
lwrist 56.2975
lhand -24.4256 13.6115
lfingers 7.12502
lthumb 2.0663 43.5812
rfemur -57.1729 10.2684 28.3234
rtibia 93.6734
rfoot -36.1034 -25.0536
rtoes -2.92573
lfemur -87.6757 5.79526 -17.0467
ltibia 74.0794
lfoot -19.4483 6.64797
ltoes -23.6695
402
root 20.0658 13.3601 -15.3688 2.60168 -42.7346 0.587743
lowerback 46.3792 -4.16328 3.84783
upperback 19.4426 -5.0672 -3.75806
thorax 0.130569 -2.48046 -4.06912
lowerneck 2.19674 2.7796 2.45555
upperneck -26.8679 3.73422 -0.877488
head -8.64611 1.44973 -0.988288
rclavicle 4.77083e-014 9.74045e-014
rhumerus 10.3625 35.2682 -65.5207
rradius 104.126
rwrist -6.16786
rhand -35.5913 -17.7679
rfingers 7.12502
rthumb -8.71545 -47.5679
lclavicle 4.77083e-014 9.74045e-014
lhumerus 66.3955 4.44714 31.2093
lradius 64.3044
lwrist 56.3838
lhand -24.2795 13.6141
lfingers 7.12502
lthumb 2.20742 43.5824
rfemur -57.0116 10.2375 28.4135
rtibia 94.0973
rfoot -36.5148 -25.1451
rtoes -3.47154
lfemur -86.6907 5.75706 -17.0209
ltibia 70.5543
lfoot -19.5043 7.03651
ltoes -23.6606
403
root 20.0217 13.3323 -15.3145 2.58465 -42.7732 0.566152
lowerback 46.2322 -4.15712 3.89758
upperback 19.4815 -5.04893 -3.768
thorax 0.205696 -2.46717 -4.11895
lowerneck 2.26931 2.77483 2.46568
upperneck -26.8827 3.73294 -0.874203
head -8.66447 1.44775 -0.990373
rclavicle 5.56597e-015 -3.81667e-014
rhumerus 10.488 35.3743 -65.5152
rradius 104.234
rwrist -6.33065
rhand -35.511 -17.9096
rfingers 7.12502
rthumb -8.63794 -47.7129
lclavicle 5.56597e-015 -3.81667e-014
lhumerus 66.337 4.54989 31.0097
lradius 64.1647
lwrist 56.4667
lhand -24.1332 13.6098
lfingers 7.12502
lthumb 2.34875 43.5766
rfemur -56.8239 10.2045 28.5253
rtibia 94.4861
rfoot -36.9255 -25.2318
rtoes -4.00933
lfemur -85.6397 5.75987 -17.0022
ltibia 67.0011
lfoot -19.544 7.3504
ltoes -23.6502
404
root 19.9769 13.3075 -15.2583 2.58653 -42.8309 0.519943
lowerback 46.0735 -4.14859 3.95328
upperback 19.5164 -5.02667 -3.78137
thorax 0.278939 -2.45155 -4.17713
lowerneck 2.34165 2.77367 2.48237
upperneck -26.895 3.73648 -0.875304
head -8.6816 1.44791 -0.9954
rclavicle -2.54444e-014 3.37934e-014
rhumerus 10.5608 35.4992 -65.529
rradius 104.321
rwrist -6.45822
rhand -35.4501 -18.0245
rfingers 7.12502
rthumb -8.57911 -47.8302
lclavicle -2.54444e-014 3.37934e-014
lhumerus 66.237 4.61813 30.7952
lradius 64.0814
lwrist 56.55
lhand -23.988 13.6002
lfingers 7.12502
lthumb 2.48897 43.5654
rfemur -56.6066 10.1725 28.6556
rtibia 94.8391
rfoot -37.3323 -25.3168
rtoes -4.54084
lfemur -84.5309 5.79857 -16.9907
ltibia 63.442
lfoot -19.564 7.58994
ltoes -23.646
405
root 19.9314 13.2859 -15.1999 2.60417 -42.9056 0.451765
lowerback 45.9048 -4.13934 4.01073
upperback 19.5495 -5.00401 -3.79695
thorax 0.352267 -2.43572 -4.23898
lowerneck 2.40605 2.77829 2.49725
upperneck -26.9028 3.7473 -0.878191
head -8.69558 1.45202 -1.00109
rclavicle 4.13472e-014 9.62118e-014
rhumerus 10.5905 35.6452 -65.5564
rradius 104.386
rwrist -6.55411
rhand -35.4055 -18.1122
rfingers 7.12502
rthumb -8.53615 -47.9197
lclavicle 4.13472e-014 9.62118e-014
lhumerus 66.0925 4.65923 30.5669
lradius 64.0559
lwrist 56.6383
lhand -23.8471 13.5875
lfingers 7.12502
lthumb 2.62507 43.5511
rfemur -56.3581 10.1432 28.8013
rtibia 95.1566
rfoot -37.7329 -25.4032
rtoes -5.07174
lfemur -83.3742 5.86744 -16.9873
ltibia 59.9015
lfoot -19.5616 7.76053
ltoes -23.655
406
root 19.8853 13.2673 -15.1394 2.63408 -42.9932 0.365922
lowerback 45.7269 -4.13118 4.06497
upperback 19.5821 -4.98485 -3.81288
thorax 0.427373 -2.42205 -4.29862
lowerneck 2.45734 2.79054 2.50107
upperneck -26.9044 3.76749 -0.879827
head -8.70507 1.46171 -1.0049
rclavicle -7.71285e-014 3.53837e-014
rhumerus 10.5846 35.8139 -65.5935
rradius 104.428
rwrist -6.62472
rhand -35.374 -18.1729
rfingers 7.12502
rthumb -8.50568 -47.9816
lclavicle -7.71285e-014 3.53837e-014
lhumerus 65.9006 4.67895 30.3279
lradius 64.0883
lwrist 56.7353
lhand -23.7141 13.5743
lfingers 7.12502
lthumb 2.75345 43.5362
rfemur -56.0783 10.1161 28.9576
rtibia 95.4391
rfoot -38.1254 -25.4923
rtoes -5.60399
lfemur -82.1801 5.95976 -16.9948
ltibia 56.4052
lfoot -19.5347 7.87322
ltoes -23.6864
407
root 19.8385 13.252 -15.0768 2.67362 -43.0883 0.266674
lowerback 45.5391 -4.12613 4.11113
upperback 19.6166 -4.97329 -3.8267
thorax 0.507186 -2.41304 -4.34967
lowerneck 2.48791 2.8122 2.48281
upperneck -26.8977 3.799 -0.876008
head -8.70821 1.47862 -1.00351
rclavicle 8.74653e-015 1.43125e-014
rhumerus 10.5511 36.0068 -65.6343
rradius 104.448
rwrist -6.67721
rhand -35.3524 -18.2085
rfingers 7.12502
rthumb -8.48491 -48.018
lclavicle 8.74653e-015 1.43125e-014
lhumerus 65.6591 4.6839 30.0822
lradius 64.1777
lwrist 56.8428
lhand -23.5948 13.5635
lfingers 7.12502
lthumb 2.86866 43.5239
rfemur -55.7684 10.0897 29.1205
rtibia 95.6873
rfoot -38.5084 -25.5851
rtoes -6.13982
lfemur -80.9601 6.06839 -17.0153
ltibia 52.9793
lfoot -19.4822 7.94211
ltoes -23.7447
408
root 19.7911 13.24 -15.0123 2.7204 -43.1856 0.158241
lowerback 45.3403 -4.12495 4.15073
upperback 19.6521 -4.96936 -3.83834
thorax 0.590911 -2.4085 -4.3928
lowerneck 2.50448 2.84098 2.44521
upperneck -26.8831 3.83944 -0.865642
head -8.70645 1.50125 -0.996949
rclavicle -5.08889e-014 -2.78299e-015
rhumerus 10.4795 36.2169 -65.6872
rradius 104.449
rwrist -6.71486
rhand -35.3391 -18.2203
rfingers 7.12502
rthumb -8.47205 -48.0304
lclavicle -5.08889e-014 -2.78299e-015
lhumerus 65.3743 4.66679 29.8337
lradius 64.3225
lwrist 56.9607
lhand -23.4944 13.5576
lfingers 7.12502
lthumb 2.96569 43.5167
rfemur -55.4298 10.0616 29.2859
rtibia 95.9017
rfoot -38.8818 -25.682
rtoes -6.67709
lfemur -79.7244 6.18599 -17.049
ltibia 49.6491
lfoot -19.4032 7.98384
ltoes -23.8344
409
root 19.7431 13.2312 -14.946 2.77231 -43.281 0.0449425
lowerback 45.129 -4.12772 4.18493
upperback 19.6883 -4.97246 -3.84769
thorax 0.678581 -2.40795 -4.42879
lowerneck 2.51184 2.87468 2.39111
upperneck -26.8607 3.88632 -0.848142
head -8.70068 1.52806 -0.985407
rclavicle 5.64548e-014 8.26944e-014
rhumerus 10.3608 36.4373 -65.7585
rradius 104.432
rwrist -6.73877
rhand -35.3341 -18.2106
rfingers 7.12502
rthumb -8.46722 -48.0208
lclavicle 5.64548e-014 8.26944e-014
lhumerus 65.0532 4.62055 29.589
lradius 64.5197
lwrist 57.0861
lhand -23.4169 13.5582
lfingers 7.12502
lthumb 3.04046 43.5162
rfemur -55.0643 10.0302 29.45
rtibia 96.0819
rfoot -39.2458 -25.7833
rtoes -7.2127
lfemur -78.4818 6.30534 -17.0934
ltibia 46.4382
lfoot -19.2973 8.01557
ltoes -23.9547
410
root 19.6945 13.2259 -14.8779 2.82807 -43.3712 -0.0700213
lowerback 44.9035 -4.13394 4.21736
upperback 19.7243 -4.98048 -3.85552
thorax 0.769708 -2.40993 -4.46111
lowerneck 2.51674 2.91005 2.32783
upperneck -26.8311 3.93587 -0.824637
head -8.69231 1.55664 -0.970353
rclavicle 5.56597e-015 2.26615e-014
rhumerus 10.1826 36.6588 -65.8575
rradius 104.398
rwrist -6.74675
rhand -35.3387 -18.1805
rfingers 7.12502
rthumb -8.47165 -47.9906
lclavicle 5.56597e-015 2.26615e-014
lhumerus 64.7062 4.53544 29.355
lradius 64.7661
lwrist 57.2151
lhand -23.3657 13.567
lfingers 7.12502
lthumb 3.08992 43.5244
rfemur -54.673 9.99421 29.6103
rtibia 96.2269
rfoot -39.6003 -25.891
rtoes -7.74448
lfemur -77.2392 6.41869 -17.1411
ltibia 43.3673
lfoot -19.1637 8.05346
ltoes -24.0974
411
root 19.6454 13.2242 -14.8082 2.88666 -43.4548 -0.1829
lowerback 44.662 -4.14224 4.25038
upperback 19.759 -4.99083 -3.86285
thorax 0.863507 -2.41281 -4.49303
lowerneck 2.52605 2.94429 2.26324
upperneck -26.7947 3.98482 -0.79709
head -8.68253 1.58484 -0.953674
rclavicle 0 3.29983e-014
rhumerus 9.9339 36.8737 -65.9927
rradius 104.35
rwrist -6.73514
rhand -35.356 -18.1305
rfingers 7.12502
rthumb -8.48832 -47.9399
lclavicle 0 3.29983e-014
lhumerus 64.3425 4.40186 29.1393
lradius 65.0581
lwrist 57.3432
lhand -23.3427 13.5844
lfingers 7.12502
lthumb 3.11214 43.5415
rfemur -54.2575 9.95389 29.7633
rtibia 96.3351
rfoot -39.9458 -26.0063
rtoes -8.26944
lfemur -76.0019 6.51754 -17.1797
ltibia 40.4537
lfoot -19.0016 8.11006
ltoes -24.2435
412
root 19.5958 13.2262 -14.7368 2.94731 -43.5323 -0.290863
lowerback 44.4029 -4.15076 4.28674
upperback 19.7914 -5.00031 -3.87108
thorax 0.959168 -2.41465 -4.52862
lowerneck 2.54544 2.97478 2.20542
upperneck -26.7511 4.02995 -0.767975
head -8.67214 1.6106 -0.937443
rclavicle -7.95139e-015 -1.94809e-014
rhumerus 9.60486 37.0748 -66.1723
rradius 104.287
rwrist -6.69941
rhand -35.388 -18.0593
rfingers 7.12502
rthumb -8.51921 -47.8674
lclavicle -7.95139e-015 -1.94809e-014
lhumerus 63.9719 4.21086 28.9514
lradius 65.3911
lwrist 57.465
lhand -23.3476 13.6102
lfingers 7.12502
lthumb 3.10738 43.5673
rfemur -53.818 9.91117 29.9062
rtibia 96.4042
rfoot -40.2816 -26.1316
rtoes -8.7879
lfemur -74.7725 6.59313 -17.1925
ltibia 37.7106
lfoot -18.8101 8.19516
ltoes -24.3691
413
root 19.5457 13.2322 -14.6637 3.01062 -43.6045 -0.39149
lowerback 44.1246 -4.15783 4.32713
upperback 19.8205 -5.00674 -3.88106
thorax 1.05646 -2.4142 -4.56996
lowerneck 2.57646 3.00006 2.15961
upperneck -26.699 4.06935 -0.739346
head -8.66078 1.63273 -0.923109
rclavicle 4.21423e-014 5.1684e-015
rhumerus 9.19096 37.2579 -66.401
rradius 104.21
rwrist -6.63648
rhand -35.4358 -17.9644
rfingers 7.12502
rthumb -8.56536 -47.7707
lclavicle 4.21423e-014 5.1684e-015
lhumerus 63.6001 3.95782 28.7973
lradius 65.7619
lwrist 57.5777
lhand -23.3805 13.6435
lfingers 7.12502
lthumb 3.07565 43.601
rfemur -53.3565 9.86892 30.0363
rtibia 96.4325
rfoot -40.6067 -26.2685
rtoes -9.30029
lfemur -73.5537 6.63632 -17.1609
ltibia 35.1465
lfoot -18.5876 8.3123
ltoes -24.4465
414
root 19.4951 13.2422 -14.5888 3.0764 -43.6738 -0.481746
lowerback 43.8257 -4.16146 4.36881
upperback 19.8459 -5.00885 -3.89286
thorax 1.15545 -2.41101 -4.61626
lowerneck 2.61819 3.02002 2.12565
upperneck -26.6366 4.10252 -0.712307
head -8.64765 1.65117 -0.910943
rclavicle 5.08889e-014 0
rhumerus 8.69284 37.4231 -66.6797
rradius 104.118
rwrist -6.54573
rhand -35.4981 -17.8421
rfingers 7.12502
rthumb -8.62552 -47.6459
lclavicle 5.08889e-014 0
lhumerus 63.2284 3.64218 28.6843
lradius 66.1673
lwrist 57.6776
lhand -23.4401 13.6827
lfingers 7.12502
lthumb 3.01813 43.6411
rfemur -52.8739 9.8316 30.1499
rtibia 96.4185
rfoot -40.9202 -26.4163
rtoes -9.80656
lfemur -72.3466 6.63852 -17.0666
ltibia 32.7657
lfoot -18.3335 8.46104
ltoes -24.4508
